<svg width="44" height="44" viewBox="0 0 44 44" fill="none" xmlns="http://www.w3.org/2000/svg">
<path d="M38.5 8.25H5.5C4.77065 8.25 4.07118 8.53973 3.55546 9.05546C3.03973 9.57118 2.75 10.2707 2.75 11V33C2.75 33.7293 3.03973 34.4288 3.55546 34.9445C4.07118 35.4603 4.77065 35.75 5.5 35.75H38.5C39.2293 35.75 39.9288 35.4603 40.4445 34.9445C40.9603 34.4288 41.25 33.7293 41.25 33V11C41.25 10.2707 40.9603 9.57118 40.4445 9.05546C39.9288 8.53973 39.2293 8.25 38.5 8.25ZM35.475 11L22 20.3225L8.525 11H35.475ZM5.5 33V12.2512L21.2163 23.1275C21.4464 23.2872 21.7199 23.3727 22 23.3727C22.2801 23.3727 22.5536 23.2872 22.7837 23.1275L38.5 12.2512V33H5.5Z" fill="#E3CFBC"/>
</svg>
