<svg width="357" height="106" viewBox="0 0 357 106" fill="none" xmlns="http://www.w3.org/2000/svg">
<path d="M182.268 0.519043C182.268 9.16488 182.875 16.3923 184.091 22.2012C185.307 28.1452 186.996 32.8734 189.157 36.3857C191.454 39.8981 194.088 42.3973 197.06 43.8833C200.167 45.3693 203.544 46.1123 207.192 46.1123C213.406 46.1123 220.836 45.2342 229.482 43.478C238.263 41.7218 247.584 39.8306 257.446 37.8042C267.307 35.7778 277.372 33.8866 287.639 32.1304C298.041 30.3742 307.902 29.4961 317.224 29.4961C325.329 29.4961 331.881 30.6444 336.879 32.9409C342.013 35.2375 345.998 38.3446 348.835 42.2622C351.672 46.1799 353.563 50.7054 354.509 55.8389C355.59 61.1074 356.13 66.5786 356.13 72.2524C356.13 77.9263 355.792 83.6001 355.117 89.2739C354.576 94.9478 354.104 100.351 353.698 105.485L345.39 105.08L345.795 91.7056C345.931 87.7879 345.593 83.7352 344.782 79.5474C344.107 75.4946 342.621 71.7121 340.324 68.1997C338.028 64.8224 334.65 61.9855 330.192 59.689C325.869 57.5275 320.128 56.4468 312.968 56.4468C305.268 56.4468 296.892 57.1898 287.841 58.6758C278.925 60.1618 270.009 61.7829 261.093 63.5391C252.312 65.4303 243.937 67.119 235.966 68.605C227.996 70.2261 221.174 71.0366 215.5 71.0366C206.179 71.0366 198.276 68.2673 191.792 62.7285C185.442 57.1898 180.917 49.2869 178.215 39.02C175.243 49.2869 170.582 57.1898 164.233 62.7285C158.019 68.2673 150.183 71.0366 140.727 71.0366C135.053 71.0366 128.231 70.2261 120.261 68.605C112.29 67.119 103.915 65.4303 95.1338 63.5391C86.3529 61.7829 77.4368 60.1618 68.3857 58.6758C59.4697 57.1898 51.0941 56.4468 43.2588 56.4468C36.099 56.4468 30.3576 57.5275 26.0347 59.689C21.7118 61.9855 18.3345 64.8224 15.9028 68.1997C13.6063 71.7121 12.0527 75.4946 11.2422 79.5474C10.5667 83.7352 10.2965 87.7879 10.4316 91.7056L10.8369 105.08L2.52881 105.485C1.85335 99.6759 1.31299 93.7995 0.907715 87.8555C0.36735 82.0465 0.097168 76.4403 0.097168 71.0366C0.097168 65.2277 0.637533 59.7565 1.71826 54.623C2.6639 49.6247 4.62272 45.2342 7.59473 41.4517C10.4316 37.8042 14.3493 34.8997 19.3477 32.7383C24.4811 30.5768 31.1006 29.4961 39.2061 29.4961C48.5273 29.4961 58.3215 30.3742 68.5884 32.1304C78.8553 33.8866 88.9196 35.7778 98.7812 37.8042C108.643 39.8306 117.897 41.7218 126.542 43.478C135.323 45.2342 142.821 46.1123 149.035 46.1123C152.683 46.1123 155.992 45.3693 158.964 43.8833C162.071 42.3973 164.706 39.8981 166.867 36.3857C169.164 32.8734 170.92 28.1452 172.136 22.2012C173.352 16.3923 173.959 9.16488 173.959 0.519043L182.268 0.519043Z" fill="#6D5448"/>
</svg>
