<svg width="357" height="106" viewBox="0 0 357 106" fill="none" xmlns="http://www.w3.org/2000/svg">
<path d="M174.732 105.481C174.732 96.8351 174.125 89.6077 172.909 83.7988C171.693 77.8548 170.004 73.1266 167.843 69.6143C165.546 66.1019 162.912 63.6027 159.94 62.1167C156.833 60.6307 153.456 59.8877 149.808 59.8877C143.594 59.8877 136.164 60.7658 127.518 62.522C118.737 64.2782 109.416 66.1694 99.5542 68.1958C89.6925 70.2222 79.6283 72.1134 69.3613 73.8696C58.9593 75.6258 49.0977 76.5039 39.7764 76.5039C31.6709 76.5039 25.119 75.3556 20.1206 73.0591C14.9871 70.7625 11.002 67.6554 8.16504 63.7378C5.32812 59.8201 3.43685 55.2946 2.49121 50.1611C1.41048 44.8926 0.870117 39.4214 0.870117 33.7476C0.870117 28.0737 1.20785 22.3999 1.8833 16.7261C2.42367 11.0522 2.89648 5.6486 3.30176 0.515137L11.6099 0.92041L11.2046 14.2944C11.0695 18.2121 11.4072 22.2648 12.2178 26.4526C12.8932 30.5054 14.3792 34.2879 16.6758 37.8003C18.9723 41.1776 22.3496 44.0145 26.8076 46.311C31.1305 48.4725 36.8719 49.5532 44.0317 49.5532C51.7319 49.5532 60.1076 48.8102 69.1587 47.3242C78.0747 45.8382 86.9907 44.2171 95.9067 42.4609C104.688 40.5697 113.063 38.881 121.034 37.395C129.004 35.7739 135.826 34.9634 141.5 34.9634C150.821 34.9634 158.724 37.7327 165.208 43.2715C171.558 48.8102 176.083 56.7131 178.785 66.98C181.757 56.7131 186.418 48.8102 192.767 43.2715C198.981 37.7327 206.817 34.9634 216.273 34.9634C221.947 34.9634 228.769 35.7739 236.739 37.395C244.71 38.881 253.085 40.5697 261.866 42.4609C270.647 44.2171 279.563 45.8382 288.614 47.3242C297.53 48.8102 305.906 49.5532 313.741 49.5532C320.901 49.5532 326.642 48.4725 330.965 46.311C335.288 44.0145 338.666 41.1776 341.097 37.8003C343.394 34.2879 344.947 30.5054 345.758 26.4526C346.433 22.2648 346.703 18.2121 346.568 14.2944L346.163 0.92041L354.471 0.515137C355.147 6.32406 355.687 12.2005 356.092 18.1445C356.633 23.9535 356.903 29.5597 356.903 34.9634C356.903 40.7723 356.362 46.2435 355.282 51.377C354.336 56.3753 352.377 60.7658 349.405 64.5483C346.568 68.1958 342.651 71.1003 337.652 73.2617C332.519 75.4232 325.899 76.5039 317.794 76.5039C308.473 76.5039 298.679 75.6258 288.412 73.8696C278.145 72.1134 268.08 70.2222 258.219 68.1958C248.357 66.1694 239.103 64.2782 230.458 62.522C221.677 60.7658 214.179 59.8877 207.965 59.8877C204.317 59.8877 201.008 60.6307 198.036 62.1167C194.929 63.6027 192.294 66.1019 190.133 69.6143C187.836 73.1266 186.08 77.8548 184.864 83.7988C183.648 89.6077 183.041 96.8351 183.041 105.481H174.732Z" fill="#6D5448"/>
</svg>
