<svg width="60" height="60" viewBox="0 0 60 60" fill="none" xmlns="http://www.w3.org/2000/svg">
<circle cx="30.0775" cy="29.8727" r="29.3781" fill="#3C2520"/>
<path d="M12.1812 20.2955C13.8868 16.8991 16.5034 14.044 19.7384 12.0493C22.9734 10.0546 26.6994 8.9988 30.5 9C36.0247 9 40.6659 11.0316 44.2145 14.3403L38.3371 20.2196C36.2113 18.1881 33.5094 17.1529 30.5 17.1529C25.1597 17.1529 20.6395 20.7609 19.0303 25.605C18.6203 26.835 18.3866 28.147 18.3866 29.5C18.3866 30.853 18.6203 32.165 19.0303 33.395C20.6416 38.2412 25.1597 41.8471 30.5 41.8471C33.2572 41.8471 35.6045 41.1194 37.4413 39.8894C38.5061 39.1883 39.4178 38.2786 40.1211 37.2152C40.8244 36.1518 41.3047 34.9568 41.5331 33.7025H30.5V25.7731H49.8069C50.0488 27.1138 50.18 28.5119 50.18 29.9653C50.18 36.2096 47.9455 41.4658 44.0669 45.0328C40.6762 48.1652 36.035 50 30.5 50C27.8076 50.0011 25.1414 49.4716 22.6537 48.4417C20.1661 47.4119 17.9057 45.9019 16.0019 43.9981C14.0981 42.0943 12.5881 39.8339 11.5583 37.3463C10.5284 34.8586 9.99892 32.1924 10 29.5C10 26.1913 10.7913 23.063 12.1812 20.2955Z" fill="#F8F1EE"/>
</svg>
