<svg width="86" height="86" viewBox="0 0 86 86" fill="none" xmlns="http://www.w3.org/2000/svg">
<path d="M13.4375 16.125H8.0625C6.57823 16.125 5.375 17.3282 5.375 18.8125V75.25C5.375 76.7343 6.57823 77.9375 8.0625 77.9375H13.4375C14.9218 77.9375 16.125 76.7343 16.125 75.25V18.8125C16.125 17.3282 14.9218 16.125 13.4375 16.125Z" stroke="#3C2520" stroke-width="5.375" stroke-linejoin="round"/>
<path d="M18.8125 37.625H40.3125M18.8125 67.1875H40.3125" stroke="#3C2520" stroke-width="5.375" stroke-linecap="round" stroke-linejoin="round"/>
<path d="M37.625 26.875H21.5C20.0157 26.875 18.8125 28.0782 18.8125 29.5625V75.25C18.8125 76.7343 20.0157 77.9375 21.5 77.9375H37.625C39.1093 77.9375 40.3125 76.7343 40.3125 75.25V29.5625C40.3125 28.0782 39.1093 26.875 37.625 26.875Z" stroke="#3C2520" stroke-width="5.375" stroke-linejoin="round"/>
<path d="M56.4375 8.0625H45.6875C44.2032 8.0625 43 9.26573 43 10.75V75.25C43 76.7343 44.2032 77.9375 45.6875 77.9375H56.4375C57.9218 77.9375 59.125 76.7343 59.125 75.25V10.75C59.125 9.26573 57.9218 8.0625 56.4375 8.0625Z" stroke="#3C2520" stroke-width="5.375" stroke-linejoin="round"/>
<path d="M70.9601 16.1435L64.1741 16.8574C62.3063 17.0539 60.9525 18.8008 61.1625 20.7374L67.0279 74.7545C67.2396 76.6912 68.9377 78.1139 70.8055 77.919L77.5915 77.2052C79.4593 77.0086 80.8131 75.2618 80.6032 73.3251L74.7461 19.3164C74.5261 17.3713 72.8279 15.947 70.9601 16.1435Z" stroke="#3C2520" stroke-width="5.375" stroke-linejoin="round"/>
</svg>
