<svg width="62" height="62" viewBox="0 0 62 62" fill="none" xmlns="http://www.w3.org/2000/svg">
<path d="M28.4174 51.6667C23.8813 51.6804 19.5056 49.9888 16.1583 46.9273C12.811 43.8659 10.7365 39.6582 10.3463 35.1388C9.95618 30.6194 11.2788 26.1184 14.0519 22.5286C16.825 18.9387 20.846 16.5222 25.3174 15.7583C40.0424 12.9167 43.9174 11.5733 49.0841 5.16667C51.6674 10.3333 54.2508 15.965 54.2508 25.8333C54.2508 40.0417 41.9024 51.6667 28.4174 51.6667Z" stroke="#FFEFDF" stroke-width="5.16667" stroke-linecap="round" stroke-linejoin="round"/>
<path d="M5.1665 54.25C5.1665 46.5 9.94567 40.4033 18.2898 38.75C24.5415 37.51 30.9998 33.5833 33.5832 31" stroke="#FFEFDF" stroke-width="5.16667" stroke-linecap="round" stroke-linejoin="round"/>
</svg>
