<svg width="76" height="76" viewBox="0 0 76 76" fill="none" xmlns="http://www.w3.org/2000/svg">
<path d="M19 69.6666C17.2583 69.6666 15.7668 69.0459 14.5255 67.8046C13.2841 66.5633 12.6645 65.0728 12.6666 63.3333V12.6666C12.6666 10.9249 13.2873 9.43342 14.5286 8.19209C15.77 6.95076 17.2604 6.33115 19 6.33326H57C58.7416 6.33326 60.2331 6.95392 61.4745 8.19526C62.7158 9.43659 63.3354 10.927 63.3333 12.6666V63.3333C63.3333 65.0749 62.7126 66.5664 61.4713 67.8078C60.23 69.0491 58.7395 69.6687 57 69.6666H19ZM19 63.3333H57V12.6666H50.6666V34.8333L42.75 30.0833L34.8333 34.8333V12.6666H19V63.3333Z" fill="#3C2520"/>
</svg>
