<svg width="65" height="62" viewBox="0 0 65 62" fill="none" xmlns="http://www.w3.org/2000/svg">
<path d="M42.3201 37.7683C39.322 41.9482 34.9318 43.927 29.7941 43.927C23.5541 43.927 18.2105 39.3467 18.9797 33.2733C19.8301 26.536 25.3172 23.6375 34.4389 22.5706C36.0666 22.3794 36.7409 22.3277 40.2537 22.0797L40.6274 22.0539V21.4985C40.6247 16.8588 37.7349 13.6917 33.8539 13.6917C29.962 13.6917 27.2455 15.6214 25.5799 20.2172L20.4612 18.5302C22.8634 11.8911 27.6057 8.525 33.8539 8.525C40.9009 8.525 46.0414 14.1515 46.0414 21.4985C46.0414 28.3392 46.4828 33.7822 47.3495 35.8541C48.3137 38.1584 48.6657 38.7397 49.7437 40.021L45.5187 43.2527C44.0995 41.5684 43.4793 40.5428 42.3174 37.7709V37.7683H42.3201ZM57.5707 53.0746C56.8395 53.5912 55.5639 53.2838 56.1407 51.9379C56.8557 50.2639 57.6222 48.3006 56.8503 47.4093C56.2816 46.7532 55.5828 46.4251 54.0689 46.4251C52.823 46.4251 52.2001 46.5801 51.3741 46.6317C50.8216 46.6653 50.5778 45.8645 51.1276 45.4951C51.844 45.0055 52.6401 44.6319 53.4839 44.3894C56.5984 43.5007 60.2682 43.9864 60.7151 44.6038C61.7037 45.973 60.1707 51.2404 57.5707 53.0746ZM54.3695 50.2743C53.6671 50.9232 52.9167 51.5232 52.1243 52.0697C46.3772 56.2417 38.932 58.4247 32.4672 58.4247C22.0591 58.4247 12.7505 53.7902 5.6872 46.0376C5.08053 45.4434 5.58157 44.5754 6.29116 45.0456C13.9016 50.4086 23.3212 53.6558 33.0712 53.6558C39.2082 53.6558 45.822 52.2686 52.1243 49.2822C52.5657 49.0833 53.0587 48.8147 53.4893 48.6261C54.4832 48.0836 55.358 49.4166 54.3695 50.2743ZM40.6545 27.2309C37.2447 27.4712 36.6028 27.5228 35.097 27.6985C28.1826 28.5071 24.8134 30.2896 24.3557 33.8933C24.0172 36.5877 26.5495 38.7603 29.7941 38.7603C35.3164 38.7603 39.3193 35.588 40.687 27.2283L40.6545 27.2309Z" fill="#FFEFDF"/>
</svg>
