<svg width="47" height="47" viewBox="0 0 47 47" fill="none" xmlns="http://www.w3.org/2000/svg">
<path d="M33.9575 10.6926C33.4927 10.6926 33.0384 10.8304 32.6519 11.0886C32.2655 11.3468 31.9642 11.7139 31.7864 12.1433C31.6085 12.5727 31.562 13.0452 31.6527 13.501C31.7433 13.9569 31.9671 14.3756 32.2958 14.7043C32.6245 15.0329 33.0432 15.2568 33.499 15.3474C33.9549 15.4381 34.4274 15.3916 34.8568 15.2137C35.2862 15.0358 35.6532 14.7346 35.9115 14.3482C36.1697 13.9617 36.3075 13.5074 36.3075 13.0426C36.3075 12.4193 36.0599 11.8216 35.6192 11.3809C35.1785 10.9402 34.5808 10.6926 33.9575 10.6926ZM42.9658 15.4317C42.9277 13.8069 42.6234 12.1993 42.065 10.673C41.5671 9.36705 40.7921 8.1845 39.7933 7.20675C38.8236 6.20296 37.6383 5.43284 36.3271 4.95466C34.8048 4.37923 33.1954 4.06795 31.5683 4.03425C29.4925 3.91675 28.8267 3.91675 23.5 3.91675C18.1733 3.91675 17.5075 3.91675 15.4317 4.03425C13.8046 4.06795 12.1952 4.37923 10.6729 4.95466C9.36412 5.43768 8.17983 6.20714 7.20667 7.20675C6.20288 8.17647 5.43276 9.36178 4.95458 10.673C4.37915 12.1953 4.06787 13.8047 4.03417 15.4317C3.91667 17.5076 3.91667 18.1734 3.91667 23.5001C3.91667 28.8267 3.91667 29.4926 4.03417 31.5684C4.06787 33.1955 4.37915 34.8049 4.95458 36.3272C5.43276 37.6384 6.20288 38.8237 7.20667 39.7934C8.17983 40.793 9.36412 41.5625 10.6729 42.0455C12.1952 42.6209 13.8046 42.9322 15.4317 42.9659C17.5075 43.0834 18.1733 43.0834 23.5 43.0834C28.8267 43.0834 29.4925 43.0834 31.5683 42.9659C33.1954 42.9322 34.8048 42.6209 36.3271 42.0455C37.6383 41.5673 38.8236 40.7972 39.7933 39.7934C40.7965 38.8193 41.5722 37.6357 42.065 36.3272C42.6234 34.8008 42.9277 33.1932 42.9658 31.5684C42.9658 29.4926 43.0833 28.8267 43.0833 23.5001C43.0833 18.1734 43.0833 17.5076 42.9658 15.4317ZM39.4408 31.3334C39.4266 32.5765 39.2014 33.8082 38.775 34.9759C38.4623 35.8282 37.9601 36.5982 37.3062 37.228C36.6711 37.8752 35.9026 38.3764 35.0542 38.6968C33.8864 39.1232 32.6548 39.3483 31.4117 39.3626C29.4533 39.4605 28.7288 39.4801 23.5783 39.4801C18.4279 39.4801 17.7033 39.4801 15.745 39.3626C14.4542 39.3867 13.169 39.188 11.9458 38.7751C11.1347 38.4384 10.4014 37.9385 9.79167 37.3063C9.14167 36.6772 8.64573 35.9065 8.3425 35.0542C7.86438 33.8698 7.5992 32.6101 7.55917 31.3334C7.55917 29.3751 7.44167 28.6505 7.44167 23.5001C7.44167 18.3497 7.44167 17.6251 7.55917 15.6667C7.56794 14.3959 7.79994 13.1365 8.24458 11.9459C8.58934 11.1193 9.11852 10.3825 9.79167 9.79175C10.3866 9.11841 11.1219 8.58364 11.9458 8.22508C13.1395 7.79433 14.3977 7.5692 15.6667 7.55925C17.625 7.55925 18.3496 7.44175 23.5 7.44175C28.6504 7.44175 29.375 7.44175 31.3333 7.55925C32.5764 7.57351 33.8081 7.79865 34.9758 8.22508C35.8658 8.55536 36.6645 9.09232 37.3062 9.79175C37.948 10.3933 38.4494 11.1288 38.775 11.9459C39.2102 13.1384 39.4355 14.3973 39.4408 15.6667C39.5387 17.6251 39.5583 18.3497 39.5583 23.5001C39.5583 28.6505 39.5387 29.3751 39.4408 31.3334ZM23.5 13.4538C21.5139 13.4577 19.5735 14.0502 17.9239 15.1564C16.2744 16.2627 14.9898 17.833 14.2324 19.6691C13.4751 21.5051 13.2789 23.5245 13.6688 25.472C14.0586 27.4195 15.017 29.2077 16.4227 30.6107C17.8285 32.0138 19.6186 32.9687 21.5668 33.3547C23.5151 33.7408 25.5341 33.5407 27.3686 32.7797C29.2032 32.0188 30.7711 30.7311 31.8741 29.0794C32.9771 27.4278 33.5658 25.4862 33.5658 23.5001C33.5684 22.1784 33.3097 20.8693 32.8045 19.648C32.2993 18.4266 31.5577 17.3173 30.6222 16.3836C29.6867 15.4499 28.5759 14.7105 27.3536 14.2077C26.1313 13.7049 24.8217 13.4487 23.5 13.4538ZM23.5 30.0213C22.2102 30.0213 20.9494 29.6389 19.877 28.9223C18.8046 28.2057 17.9687 27.1873 17.4752 25.9957C16.9816 24.8041 16.8524 23.4928 17.1041 22.2278C17.3557 20.9629 17.9768 19.8009 18.8888 18.8889C19.8008 17.9768 20.9628 17.3558 22.2278 17.1041C23.4928 16.8525 24.804 16.9817 25.9956 17.4752C27.1872 17.9688 28.2057 18.8047 28.9222 19.8771C29.6388 20.9495 30.0212 22.2103 30.0212 23.5001C30.0212 24.3565 29.8526 25.2045 29.5248 25.9957C29.1971 26.7868 28.7168 27.5057 28.1112 28.1113C27.5057 28.7169 26.7868 29.1972 25.9956 29.5249C25.2044 29.8527 24.3564 30.0213 23.5 30.0213Z" fill="#E3CFBC"/>
</svg>
